<?xml version="1.0" encoding="UTF-8"?>
<!DOCTYPE svg PUBLIC "-//W3C//DTD SVG 1.1//EN" "http://www.w3.org/Graphics/SVG/1.1/DTD/svg11.dtd">
<svg xmlns="http://www.w3.org/2000/svg" version="1.1" width="511px" height="511px" style="shape-rendering:geometricPrecision; text-rendering:geometricPrecision; image-rendering:optimizeQuality; fill-rule:evenodd; clip-rule:evenodd" xmlns:xlink="http://www.w3.org/1999/xlink">
<g><path style="opacity:0.989" fill="#a8aefe" d="M 92.5,-0.5 C 100.167,-0.5 107.833,-0.5 115.5,-0.5C 134.015,2.057 151.015,8.72367 166.5,19.5C 201.704,53.2019 236.537,87.5352 271,122.5C 277.916,80.4495 301.083,51.6162 340.5,36C 381.766,24.227 418.099,32.5603 449.5,61C 483.076,99.3213 488.576,141.488 466,187.5C 463.849,190.99 461.682,194.49 459.5,198C 466.83,204.666 473.497,212 479.5,220C 488.494,235.249 491.661,251.749 489,269.5C 485.678,287.481 477.178,302.481 463.5,314.5C 477.134,327.17 488.967,341.17 499,356.5C 504.182,368.537 508.015,380.87 510.5,393.5C 510.5,401.5 510.5,409.5 510.5,417.5C 502.799,465.378 475.466,495.878 428.5,509C 424.644,509.177 420.977,509.677 417.5,510.5C 409.833,510.5 402.167,510.5 394.5,510.5C 376.749,508.143 360.416,501.977 345.5,492C 308.083,456.585 271.25,420.418 235,383.5C 232.99,408.284 224.323,430.284 209,449.5C 206.444,450.219 205.277,451.886 205.5,454.5C 204.448,454.351 203.448,454.517 202.5,455C 200.604,457.939 198.27,460.439 195.5,462.5C 170.371,481.359 142.038,488.526 110.5,484C 67.3113,473.145 39.478,446.312 27,403.5C 22.8175,378.791 25.8175,355.124 36,332.5C 39.4734,326.703 43.3067,321.203 47.5,316C 23.1382,295.232 14.9715,269.066 23,237.5C 28.3386,221.829 37.8386,209.329 51.5,200C 35.9718,185.998 22.4718,170.498 11,153.5C 5.62279,141.209 1.78945,128.543 -0.5,115.5C -0.5,107.833 -0.5,100.167 -0.5,92.5C 7.38342,46.2256 33.7167,16.0589 78.5,2C 83.3617,1.47703 88.0284,0.643695 92.5,-0.5 Z"/></g>
<g><path style="opacity:1" fill="#f0f0f1" d="M 432.5,459.5 C 429.455,460.279 426.789,461.613 424.5,463.5C 402.948,469.202 383.615,465.035 366.5,451C 263.667,348.167 160.833,245.333 58,142.5C 53.7141,136.262 50.2141,129.595 47.5,122.5C 45.1898,114.016 44.1898,105.35 44.5,96.5C 44.4326,95.0413 44.7659,93.7079 45.5,92.5C 46.9238,90.4855 47.5905,88.1522 47.5,85.5C 47.5,84.8333 47.5,84.1667 47.5,83.5C 48.9063,83.0269 49.573,82.0269 49.5,80.5C 55.5,65.8333 65.8333,55.5 80.5,49.5C 82.0269,49.573 83.0269,48.9063 83.5,47.5C 84.1667,47.5 84.8333,47.5 85.5,47.5C 88.1522,47.5905 90.4855,46.9238 92.5,45.5C 110.966,42.6022 127.633,46.7688 142.5,58C 247.361,162.527 351.861,267.361 456,372.5C 468.99,395.317 468.657,417.983 455,440.5C 448.898,448.614 441.398,454.947 432.5,459.5 Z"/></g>
<g><path style="opacity:1" fill="#d8daf5" d="M 92.5,45.5 C 90.4855,46.9238 88.1522,47.5905 85.5,47.5C 87.5145,46.0762 89.8478,45.4095 92.5,45.5 Z"/></g>
<g><path style="opacity:1" fill="#d1d4f7" d="M 83.5,47.5 C 83.0269,48.9063 82.0269,49.573 80.5,49.5C 80.9731,48.0937 81.9731,47.427 83.5,47.5 Z"/></g>
<g><path style="opacity:1" fill="#f0f0f1" d="M 430.5,114.5 C 430.259,116.898 430.926,118.898 432.5,120.5C 438.13,158.067 422.796,182.567 386.5,194C 376.357,195.028 366.357,194.528 356.5,192.5C 356.027,191.094 355.027,190.427 353.5,190.5C 344.569,187.593 336.902,182.593 330.5,175.5C 324.419,168.426 320.086,160.426 317.5,151.5C 317.741,149.102 317.074,147.102 315.5,145.5C 312.681,112.267 326.681,89.7669 357.5,78C 387.937,71.4737 411.437,81.307 428,107.5C 429.411,109.65 430.245,111.984 430.5,114.5 Z"/></g>
<g><path style="opacity:1" fill="#caccf8" d="M 49.5,80.5 C 49.573,82.0269 48.9063,83.0269 47.5,83.5C 47.427,81.9731 48.0937,80.9731 49.5,80.5 Z"/></g>
<g><path style="opacity:1" fill="#d5d7f6" d="M 47.5,85.5 C 47.5905,88.1522 46.9238,90.4855 45.5,92.5C 45.4095,89.8478 46.0762,87.5145 47.5,85.5 Z"/></g>
<g><path style="opacity:1" fill="#b9bdfb" d="M 44.5,96.5 C 44.1898,105.35 45.1898,114.016 47.5,122.5C 46.0337,121.653 45.2004,120.32 45,118.5C 43.4616,111.033 43.2949,103.7 44.5,96.5 Z"/></g>
<g><path style="opacity:1" fill="#d9daf5" d="M 430.5,114.5 C 432.074,116.102 432.741,118.102 432.5,120.5C 430.926,118.898 430.259,116.898 430.5,114.5 Z"/></g>
<g><path style="opacity:1" fill="#c4c7f9" d="M 315.5,145.5 C 317.074,147.102 317.741,149.102 317.5,151.5C 315.926,149.898 315.259,147.898 315.5,145.5 Z"/></g>
<g><path style="opacity:1" fill="#cbcef8" d="M 353.5,190.5 C 355.027,190.427 356.027,191.094 356.5,192.5C 354.973,192.573 353.973,191.906 353.5,190.5 Z"/></g>
<g><path style="opacity:1" fill="#c3c7f9" d="M 422.5,231.5 C 418.131,231.467 413.798,231.8 409.5,232.5C 411.634,230.967 414.134,230.3 417,230.5C 419.033,230.506 420.866,230.839 422.5,231.5 Z"/></g>
<g><path style="opacity:1" fill="#eff0f1" d="M 422.5,231.5 C 440.253,237.102 447.42,249.102 444,267.5C 433.928,285.392 419.762,289.559 401.5,280C 391.894,271.081 389.06,260.247 393,247.5C 394.123,244.751 395.623,242.251 397.5,240C 401.015,236.741 405.015,234.241 409.5,232.5C 413.798,231.8 418.131,231.467 422.5,231.5 Z"/></g>
<g><path style="opacity:1" fill="#f0f0f1" d="M 101.5,284.5 C 96.5365,285.254 91.5365,285.587 86.5,285.5C 70.2812,280.093 63.4478,268.76 66,251.5C 70.3007,239.867 78.634,233.533 91,232.5C 111.919,234.328 120.919,245.661 118,266.5C 115.012,274.981 109.512,280.981 101.5,284.5 Z"/></g>
<g><path style="opacity:1" fill="#cbcef8" d="M 101.5,284.5 C 98.8136,285.991 95.8136,286.657 92.5,286.5C 90.3035,286.495 88.3035,286.162 86.5,285.5C 91.5365,285.587 96.5365,285.254 101.5,284.5 Z"/></g>
<g><path style="opacity:1" fill="#f0f0f1" d="M 184.5,404.5 C 183.094,404.973 182.427,405.973 182.5,407.5C 171.071,428.483 153.237,439.483 129,440.5C 104.049,438.875 86.0487,426.875 75,404.5C 71.288,396.972 69.788,388.972 70.5,380.5C 69.8158,372.43 71.1492,364.763 74.5,357.5C 75.9063,357.027 76.573,356.027 76.5,354.5C 82.6188,340.882 92.6188,331.049 106.5,325C 140.057,315.022 165.89,324.856 184,354.5C 191.165,371.123 191.332,387.789 184.5,404.5 Z"/></g>
<g><path style="opacity:1" fill="#d2d4f6" d="M 76.5,354.5 C 76.573,356.027 75.9063,357.027 74.5,357.5C 74.427,355.973 75.0937,354.973 76.5,354.5 Z"/></g>
<g><path style="opacity:1" fill="#ced1f8" d="M 184.5,404.5 C 184.573,406.027 183.906,407.027 182.5,407.5C 182.427,405.973 183.094,404.973 184.5,404.5 Z"/></g>
<g><path style="opacity:1" fill="#bdc1fb" d="M 432.5,459.5 C 430.469,461.755 427.802,463.088 424.5,463.5C 426.789,461.613 429.455,460.279 432.5,459.5 Z"/></g>
</svg>
