<?xml version="1.0" encoding="UTF-8" standalone="no"?>
<!-- Created with Inkscape (http://www.inkscape.org/) -->

<svg
   width="256"
   height="256"
   viewBox="0 0 67.733334 67.733334"
   version="1.1"
   id="svg1"
   xmlns="http://www.w3.org/2000/svg"
   xmlns:svg="http://www.w3.org/2000/svg">
  <defs
     id="defs1" />
  <g
     id="layer1"
     transform="translate(-5.371681,-63.87502)">
    <g
       id="g60"
       style="fill:#f3edf7;fill-opacity:1;stroke:#f3edf7;stroke-width:6.21771;stroke-dasharray:none;stroke-opacity:1"
       transform="matrix(1.0000606,0,0,1.0000606,-0.00205315,-0.00590917)">
      <g
         id="g1"
         transform="matrix(0.3457623,0,0,0.3457623,1.8096128,40.073954)"
         style="fill:#f3edf7;fill-opacity:1;stroke:#f3edf7;stroke-width:17.9826;stroke-dasharray:none;stroke-opacity:1">
        <g
           id="g2"
           style="fill:#f3edf7;fill-opacity:1;stroke:#f3edf7;stroke-width:1.47853;stroke-dasharray:none;stroke-opacity:1"
           transform="matrix(12.162505,0,0,12.162505,-32.462207,-452.96894)">
          <path
             id="path1"
             style="fill:#f3edf7;fill-opacity:1;stroke:#f3edf7;stroke-width:1.47853;stroke-linecap:round;stroke-linejoin:round;stroke-miterlimit:9.1;stroke-dasharray:none;stroke-opacity:1;paint-order:fill markers stroke"
             d="m 11.646507,43.642549 c -4.038226,8.9e-4 -7.3116325,3.274297 -7.3125227,7.312523 -1.947e-4,4.038993 3.2735294,7.313597 7.3125227,7.314488 3.487073,-0.0084 6.483277,-2.47736 7.158181,-5.898508 -0.620978,1.570892 -1.854119,2.821688 -3.416025,3.464933 0.0015,0.277406 0.0039,0.532472 0.0039,0.726484 -0.739445,0 -1.37585,-0.10185 -1.92189,-0.271448 -0.146668,0.01695 -0.293894,0.02867 -0.441396,0.03514 -3.4356877,2.08e-4 -6.2209147,-2.785019 -6.2207066,-6.220707 -2.081e-4,-3.435688 2.7850189,-6.220915 6.2207066,-6.220707 0.192387,2.18e-4 0.38466,0.0094 0.576199,0.0274 -0.637785,-0.178134 -1.296807,-0.268831 -1.959001,-0.269605 z m -3.1385553,3.085838 c 0.1447941,0.443587 0.436407,0.880884 0.8274942,1.046718 -0.1090884,0.328801 -0.1096117,0.719225 -0.1096117,1.137282 0,0.90457 0.6427321,1.676019 1.5479578,1.983086 -0.329929,-0.04179 -0.632013,-0.123222 -0.8682918,-0.287054 -0.431935,0.07708 -0.6133052,0.557376 -0.5744781,1.118235 0.2769283,4.000144 2.8097509,3.741322 2.8324539,3.734783 -1.853097,-0.904141 -1.549482,-2.377876 -1.610382,-2.847445 0.07631,0.794735 0.926406,3.057084 4.098271,3.057084 0,-0.953411 0.0047,-3.40281 -0.304135,-4.157993 -0.09728,-0.294206 -0.3627,-1.081221 -0.686056,-1.169354 -0.262025,0.29403 -0.643893,0.449619 -1.095011,0.527045 0.867912,-0.322492 1.4773,-1.077475 1.4773,-1.958387 0,-0.418057 -5.29e-4,-0.808481 -0.109612,-1.137282 0.391087,-0.165834 0.682701,-0.603131 0.827494,-1.046718 -0.472651,-0.0073 -1.224795,0.166618 -1.866593,0.187028 -0.321367,-0.08366 -0.733857,-0.129693 -1.260165,-0.130256 -0.526307,5.76e-4 -0.938675,0.04659 -1.260042,0.130256 -0.6417973,-0.02041 -1.3939415,-0.194302 -1.8665933,-0.187028 z" />
        </g>
      </g>
    </g>
    <g
       id="g59"
       transform="matrix(0.34578325,0,0,0.34578325,1.8076706,40.070473)">
      <g
         id="g55"
         style="fill:#a79ab0;fill-opacity:1"
         transform="matrix(12.162505,0,0,12.162505,-32.462207,-452.96894)">
        <path
           id="path55"
           style="fill:#a79ab0;fill-opacity:1;stroke:none;stroke-width:1;stroke-linecap:round;stroke-linejoin:round;stroke-miterlimit:9.1;stroke-dasharray:none;paint-order:fill markers stroke"
           d="m 11.646484,43.642578 a 7.3141356,7.3141356 0 0 0 -7.3124996,7.3125 7.3141356,7.3141356 0 0 0 7.3124996,7.314453 7.3141356,7.3141356 0 0 0 7.158204,-5.898437 6.2203302,6.2203302 0 0 1 -3.416016,3.464844 c 0.0015,0.277406 0.0039,0.53255 0.0039,0.726562 -0.739445,0 -1.375835,-0.101886 -1.921875,-0.271484 a 6.2203302,6.2203302 0 0 1 -0.441406,0.03516 6.2203302,6.2203302 0 0 1 -6.2207032,-6.220703 6.2203302,6.2203302 0 0 1 6.2207032,-6.220703 6.2203302,6.2203302 0 0 1 0.576172,0.02734 7.3141356,7.3141356 0 0 0 -1.958985,-0.269531 z" />
      </g>
      <path
         id="path56"
         style="fill:#a9aefe;fill-opacity:1;stroke:none;stroke-width:3.89285;stroke-miterlimit:9.1;paint-order:fill markers stroke"
         d="m 133.69199,159.33687 c -5.21391,5.85079 -14.31573,7.20874 -24.65533,7.23806 -7.86088,-0.0224 -15.762696,-0.37083 -21.023461,-4.01856 -5.253411,0.93753 -7.458882,6.77891 -6.986647,13.60036 3.368142,48.65177 34.173778,45.50436 34.449898,45.42483 -22.538298,-10.99662 -18.845615,-28.92124 -19.586321,-34.63237 0.928118,9.66597 11.266961,37.18157 49.844791,37.18157 0,-11.59586 0.0576,-41.3873 -3.69908,-50.57221 -1.18318,-3.57829 -4.41103,-13.14975 -8.34385,-14.22168 z" />
      <path
         id="path57"
         style="fill:#a9aefe;fill-opacity:1;stroke:none;stroke-width:10.8902;stroke-miterlimit:9.1;paint-order:fill markers stroke"
         d="m 71.015652,115.36577 c 1.761059,5.39513 5.307759,10.71282 10.064359,12.72978 -1.326788,3.99905 -1.332717,8.74811 -1.332717,13.83273 0,14.2514 13.111388,25.79481 29.296846,25.85018 16.18547,-0.0553 29.29687,-11.59879 29.29687,-25.85018 0,-5.08462 -0.006,-9.83368 -1.33272,-13.83273 4.7566,-2.01696 8.3033,-7.33465 10.06435,-12.72978 -5.74862,-0.0882 -14.89635,2.02658 -22.70222,2.27482 -3.90863,-1.01753 -8.92506,-1.57864 -15.32628,-1.58548 -6.40121,0.007 -11.417635,0.56789 -15.32627,1.58548 -7.805859,-0.24824 -16.953588,-2.36329 -22.702218,-2.27482 z m 19.600195,13.4421 c 1.606411,-0.04 3.758941,0.17941 6.6636,0.71235 1.943988,0.35659 4.406043,1.30834 5.882353,2.18291 2.74972,1.62895 3.10482,3.49264 5.88234,3.49264 2.77752,0 3.13262,-1.86369 5.88235,-3.49264 1.47631,-0.87459 3.93837,-1.82632 5.88236,-2.18291 13.27843,-2.436 11.05239,1.51529 11.05239,8.20313 0,6.90355 -5.59644,12.5 -12.5,12.5 -2.20644,-0.0108 -4.37075,-0.60541 -6.27298,-1.72335 -0.0447,0.0976 -0.0835,0.18753 -0.13788,0.27576 l -2.80331,4.54964 c -0.30435,0.49517 -0.70506,0.74459 -1.10294,0.73529 -0.39788,0.009 -0.79859,-0.24012 -1.10294,-0.73529 l -2.80331,-4.54964 c -0.0541,-0.0882 -0.0929,-0.17812 -0.13788,-0.27576 -1.90224,1.118 -4.06654,1.7126 -6.272977,1.72335 -6.903565,0 -12.5,-5.59645 -12.5,-12.5 0,-5.22487 -1.348447,-8.77189 4.388788,-8.91545 z" />
      <path
         id="path58"
         style="fill:none;stroke:#a9aefe;stroke-width:3.52941;stroke-linecap:round;stroke-miterlimit:9.1;stroke-opacity:1;paint-order:fill markers stroke"
         d="m 103.73033,142.01134 a 5.7592259,5.7592259 0 0 1 -4.987636,2.87962 5.7592259,5.7592259 0 0 1 -4.987636,-2.87962" />
      <path
         id="path59"
         style="fill:none;stroke:#a9aefe;stroke-width:3.52941;stroke-linecap:round;stroke-miterlimit:9.1;stroke-opacity:1;paint-order:fill markers stroke"
         d="m 124.33322,142.01134 a 5.7592259,5.7592259 0 0 1 -4.98763,2.87962 5.7592259,5.7592259 0 0 1 -4.98764,-2.87962" />
    </g>
  </g>
</svg>
